<svg id="Ebene_1" data-name="Ebene 1" xmlns="http://www.w3.org/2000/svg" viewBox="0 0 812 1066"><defs><style>.cls-1{fill:#a6ffe8;stroke:#067700;opacity:0.26;}.cls-1,.cls-2,.cls-3,.cls-4,.cls-9{stroke-miterlimit:10;}.cls-2{fill:#ffdefe;stroke:#9f00a3;opacity:0.36;}.cls-10,.cls-3{fill:none;}.cls-3,.cls-4,.cls-5,.cls-9{stroke:#000;}.cls-5,.cls-9{fill:#fff;}.cls-6,.cls-8{isolation:isolate;font-size:12px;}.cls-6{font-family:HelveticaNeue-Light, Helvetica Neue;font-weight:300;}.cls-7{letter-spacing:-0.02em;}.cls-8{font-family:ArialMT, Arial;}.cls-11{letter-spacing:-0.09em;}.cls-12,.cls-13{font-size:33px;font-family:MyriadPro-Regular, Myriad Pro;}.cls-12{fill:#9b0b9b;}.cls-13{fill:#028925;}.cls-14{letter-spacing:0em;}.cls-15{letter-spacing:-0.01em;}.cls-16{letter-spacing:0.03em;}.cls-17{letter-spacing:-0.01em;}</style></defs><rect class="cls-1" x="294.23" y="23" width="489.77" height="1023"/><rect class="cls-2" x="27" y="23" width="250.82" height="1023"/><path class="cls-3" d="M396,308.25v39.88"/><path class="cls-4" d="M396,353.38l-3.5-7,3.5,1.75,3.5-1.75Z"/><rect class="cls-5" x="321" y="225.75" width="150" height="82.5" rx="12.38"/><text class="cls-6" transform="translate(330.65 267)">setup &amp; delete BTh<tspan class="cls-7" x="98.69" y="0">r</tspan><tspan x="102.25" y="0">eads </tspan><tspan x="22" y="14.4">and event-cache</tspan></text><rect class="cls-5" x="321" y="354.5" width="150" height="40" rx="6"/><text class="cls-8" transform="translate(374.49 378)">get bids</text><path class="cls-3" d="M456,494.5h43.63"/><path class="cls-4" d="M504.88,494.5l-7,3.5,1.75-3.5-1.75-3.5Z"/><path class="cls-3" d="M396,544.5v35h85v28.63"/><path class="cls-4" d="M481,613.38l-3.5-7,3.5,1.75,3.5-1.75Z"/><path class="cls-9" d="M396,444.5l60,50-60,50-60-50Z"/><text class="cls-8" transform="translate(366.98 492)">dispatched<tspan x="8.01" y="14.4">action ?</tspan></text><path class="cls-3" d="M396,394.5v43.63"/><path class="cls-4" d="M396,443.38l-3.5-7,3.5,1.75,3.5-1.75Z"/><path class="cls-3" d="M566,544.5v35H481v28.63"/><path class="cls-4" d="M481,613.38l-3.5-7,3.5,1.75,3.5-1.75Z"/><path class="cls-3" d="M566,444.5V270.87"/><path class="cls-4" d="M566,265.62l3.5,7-3.5-1.75-3.5,1.75Z"/><path class="cls-9" d="M566,444.5l60,50-60,50-60-50Z"/><text class="cls-8" transform="translate(536.32 492.5)">start replay<tspan x="8.66" y="14.4">action ?</tspan></text><rect class="cls-10" x="566" y="414.5" width="40" height="20"/><text class="cls-8" transform="translate(575.71 428)"><tspan class="cls-11">Y</tspan><tspan x="6.9" y="0">es</tspan></text><path class="cls-3" d="M481,654.5h-5v23.63"/><path class="cls-4" d="M476,683.38l-3.5-7,3.5,1.75,3.5-1.75Z"/><rect class="cls-5" x="336" y="614.5" width="290" height="40" rx="6"/><text class="cls-8" transform="translate(365.11 638)">get next action from dispatch or request-bid</text><rect class="cls-10" x="571" y="544.5" width="30" height="20"/><text class="cls-8" transform="translate(577.83 558)">No</text><rect class="cls-10" x="406" y="544.5" width="30" height="20"/><text class="cls-8" transform="translate(412.83 558)">No</text><path class="cls-3" d="M476,784.5v23.63"/><path class="cls-4" d="M476,813.38l-3.5-7,3.5,1.75,3.5-1.75Z"/><path class="cls-3" d="M416,734.5H248.37"/><path class="cls-4" d="M243.12,734.5l7-3.5-1.75,3.5,1.75,3.5Z"/><path class="cls-9" d="M476,684.5l60,50-60,50-60-50Z"/><text class="cls-8" transform="translate(452.13 732.5)">has next<tspan x="1.67" y="14.4">action ?</tspan></text><path class="cls-3" d="M476,854.5v33.63"/><path class="cls-4" d="M476,893.38l-3.5-7,3.5,1.75,3.5-1.75Z"/><rect class="cls-5" x="401" y="814.5" width="150" height="40" rx="6"/><text class="cls-8" transform="translate(449.82 838)">log action</text><path class="cls-3" d="M476,944.5v23.63"/><path class="cls-4" d="M476,973.38l-3.5-7,3.5,1.75,3.5-1.75Z"/><rect class="cls-5" x="401" y="894.5" width="150" height="50" rx="7.5"/><text class="cls-8" transform="translate(413.96 916.5)">advance BThreads and<tspan x="28.02" y="14.4">log reactions</tspan></text><path class="cls-3" d="M551,999.5H736V267H477.37"/><path class="cls-4" d="M472.12,267l7-3.5-1.75,3.5,1.75,3.5Z"/><rect class="cls-5" x="401" y="974.5" width="150" height="50" rx="7.5"/><text class="cls-8" transform="translate(422.79 1003)">update event-cache</text><rect class="cls-10" x="456" y="474.5" width="40" height="20"/><text class="cls-8" transform="translate(465.71 488)"><tspan class="cls-11">Y</tspan><tspan x="6.9" y="0">es</tspan></text><rect class="cls-10" x="366" y="707" width="30" height="20"/><text class="cls-8" transform="translate(372.83 720)">No</text><rect class="cls-10" x="476" y="784.5" width="40" height="20"/><text class="cls-8" transform="translate(485.71 798)"><tspan class="cls-11">Y</tspan><tspan x="6.9" y="0">es</tspan></text><path class="cls-3" d="M396,164.5v54.88"/><path class="cls-4" d="M396,224.63l-3.5-7,3.5,1.75,3.5-1.75Z"/><rect class="cls-5" x="321" y="114.5" width="150" height="50" rx="7.5"/><text class="cls-8" transform="translate(374.16 143)">initialize</text><rect class="cls-5" x="62" y="707" width="180" height="55" rx="8.25"/><text class="cls-8" transform="translate(102.31 732.5)">call update-cb with<tspan x="0.67" y="14.4">context &amp; dispatch</tspan></text><path class="cls-3" d="M242,267h72.63"/><path class="cls-4" d="M319.88,267l-7,3.5,1.75-3.5-1.75-3.5Z"/><rect class="cls-5" x="62" y="239.5" width="180" height="55" rx="8.25"/><text class="cls-8" transform="translate(111.47 271)">dispatch action</text><text class="cls-12" transform="translate(40.38 65)">UI</text><text class="cls-13" transform="translate(305.5 65)">Upd<tspan class="cls-14" x="58.74" y="0">a</tspan><tspan class="cls-15" x="74.51" y="0">t</tspan><tspan class="cls-16" x="85.24" y="0">e</tspan><tspan x="102.69" y="0">-</tspan><tspan class="cls-17" x="112.83" y="0">L</tspan><tspan x="127.94" y="0">oop</tspan></text></svg>