<svg id="Ebene_1" data-name="Ebene 1" xmlns="http://www.w3.org/2000/svg" viewBox="0 0 812 1199"><defs><style>.cls-1{fill:#a6ffe8;stroke:#067700;opacity:0.26;}.cls-1,.cls-14,.cls-15,.cls-16,.cls-3{stroke-miterlimit:10;}.cls-2,.cls-5,.cls-9{fill:#028925;}.cls-2{opacity:0.13;}.cls-3{fill:#ffdefe;stroke:#9f00a3;opacity:0.36;}.cls-4,.cls-5{font-size:33px;}.cls-4{fill:#9b0b9b;}.cls-4,.cls-5,.cls-9{font-family:MyriadPro-Regular, Myriad Pro;}.cls-6{letter-spacing:0.01em;}.cls-7{letter-spacing:-0.01em;}.cls-8{letter-spacing:0em;}.cls-9{font-size:24px;}.cls-10{letter-spacing:0em;}.cls-11{letter-spacing:-0.01em;}.cls-12{letter-spacing:0.03em;}.cls-13{letter-spacing:0em;}.cls-14,.cls-19{fill:none;}.cls-14,.cls-15,.cls-16,.cls-22{stroke:#000;}.cls-16,.cls-22{fill:#fff;}.cls-17,.cls-20{isolation:isolate;font-size:12px;}.cls-17{font-family:HelveticaNeue-Light, Helvetica Neue;font-weight:300;}.cls-18{letter-spacing:-0.02em;}.cls-20{font-family:ArialMT, Arial;}.cls-21{letter-spacing:-0.09em;}</style></defs><rect class="cls-1" x="294.23" y="23" width="489.77" height="1150"/><rect class="cls-2" x="315" y="181.44" width="451" height="974.56"/><rect class="cls-3" x="23.18" y="23" width="250.82" height="1150"/><text class="cls-4" transform="translate(40.38 62)">UI</text><text class="cls-5" transform="translate(305.5 62)"><tspan class="cls-6">S</tspan><tspan class="cls-7" x="16.47" y="0">c</tspan><tspan x="31.05" y="0">ena</tspan><tspan class="cls-8" x="81.81" y="0">r</tspan><tspan x="92.73" y="0">ios</tspan></text><text class="cls-9" transform="translate(624 213.63)">upd<tspan class="cls-10" x="40.42" y="0">a</tspan><tspan class="cls-11" x="51.89" y="0">t</tspan><tspan class="cls-12" x="59.69" y="0">e</tspan><tspan class="cls-13" x="72.38" y="0">-loop</tspan></text><path class="cls-14" d="M594,376.26V342.63"/><path class="cls-15" d="M594,337.38l3.5,7-3.5-1.75-3.5,1.75Z"/><path class="cls-14" d="M594,476.26v30H509v23.63"/><path class="cls-15" d="M509,535.14l-3.5-7,3.5,1.75,3.5-1.75Z"/><path class="cls-16" d="M594,376.26l60,50-60,50-60-50Z"/><text class="cls-17" transform="translate(565.55 424.26)">start <tspan class="cls-18" x="26.22" y="0">r</tspan><tspan x="29.78" y="0">eplay</tspan><tspan x="7.89" y="14.4">action ?</tspan></text><rect class="cls-19" x="594" y="356.26" width="40" height="20"/><text class="cls-20" transform="translate(603.71 369.76)"><tspan class="cls-21">Y</tspan><tspan x="6.9" y="0">es</tspan></text><path class="cls-14" d="M508,752.26h1v23.63"/><path class="cls-15" d="M509,781.14l-3.5-7,3.5,1.75,3.5-1.75Z"/><rect class="cls-22" x="363" y="712.26" width="290" height="40" rx="6"/><text class="cls-20" transform="translate(392.11 735.76)">get next action from dispatch or request-bid</text><rect class="cls-19" x="594" y="476.26" width="30" height="20"/><text class="cls-20" transform="translate(600.83 489.76)">No</text><rect class="cls-19" x="418" y="476.26" width="30" height="20"/><text class="cls-20" transform="translate(424.83 489.76)">No</text><path class="cls-14" d="M509,882.26v23.63"/><path class="cls-15" d="M509,911.14l-3.5-7,3.5,1.75,3.5-1.75Z"/><path class="cls-14" d="M394,832.26H259.25"/><path class="cls-15" d="M254,832.26l7-3.5-1.75,3.5,1.75,3.5Z"/><path class="cls-16" d="M509,782.26l115,50-115,50-115-50Z"/><text class="cls-20" transform="translate(463.14 833.76)">has next action ?</text><path class="cls-14" d="M509,952.26v17.63"/><path class="cls-15" d="M509,975.14l-3.5-7,3.5,1.75,3.5-1.75Z"/><rect class="cls-22" x="364" y="912.26" width="290" height="40" rx="6"/><text class="cls-20" transform="translate(482.82 935.76)">log action</text><path class="cls-14" d="M509,1056.26v33.63"/><path class="cls-15" d="M509,1095.14l-3.5-7,3.5,1.75,3.5-1.75Z"/><rect class="cls-22" x="364" y="976.26" width="290" height="80" rx="12"/><text class="cls-20" transform="translate(410.77 1019.76)">advance BThreads and log reactions</text><path class="cls-14" d="M654,1116.26h84v-870H499.37"/><path class="cls-15" d="M494.12,246.26l7-3.5-1.75,3.5,1.75,3.5Z"/><rect class="cls-22" x="364" y="1096.26" width="290" height="40" rx="6"/><text class="cls-20" transform="translate(455.79 1119.76)">update event-cache</text><rect class="cls-19" x="478" y="406.26" width="40" height="20"/><text class="cls-20" transform="translate(487.71 419.76)"><tspan class="cls-21">Y</tspan><tspan x="6.9" y="0">es</tspan></text><rect class="cls-19" x="363" y="816.26" width="30" height="20"/><text class="cls-20" transform="translate(369.83 829.76)">No</text><rect class="cls-19" x="508" y="882.26" width="40" height="20"/><text class="cls-20" transform="translate(517.71 895.76)"><tspan class="cls-21">Y</tspan><tspan x="6.9" y="0">es</tspan></text><path class="cls-14" d="M418,156.26v53.63"/><path class="cls-15" d="M418,215.14l-3.5-7,3.5,1.75,3.5-1.75Z"/><rect class="cls-22" x="343" y="106.26" width="150" height="50" rx="7.5"/><text class="cls-20" transform="translate(396.16 134.76)">initialize</text><rect class="cls-22" x="74" y="804.76" width="180" height="55" rx="8.25"/><text class="cls-20" transform="translate(114.31 829.76)">call update-cb with<tspan x="17.67" y="14.4">new context</tspan></text><path class="cls-14" d="M254,243.76v2.5h82.63"/><path class="cls-15" d="M341.88,246.26l-7,3.5,1.75-3.5-1.75-3.5Z"/><rect class="cls-22" x="74" y="216.26" width="180" height="55" rx="8.25"/><text class="cls-20" transform="translate(123.47 246.76)">dispatch action</text><path class="cls-14" d="M509,608.76v21.13"/><path class="cls-15" d="M509,635.14l-3.5-7,3.5,1.75,3.5-1.75Z"/><rect class="cls-22" x="364" y="536.26" width="290" height="72.5" rx="10.88"/><text class="cls-20" transform="translate(417.11 575.76)">setup BThreads and event-caches</text><path class="cls-14" d="M509,676.26h-1v29.63"/><path class="cls-15" d="M508,711.14l-3.5-7,3.5,1.75,3.5-1.75Z"/><rect class="cls-22" x="364" y="636.26" width="290" height="40" rx="6"/><text class="cls-20" transform="translate(487.49 659.76)">get bids</text><path class="cls-14" d="M478,426.26h49.63"/><path class="cls-15" d="M532.88,426.26l-7,3.5,1.75-3.5-1.75-3.5Z"/><path class="cls-14" d="M418,476.26v30h91v30"/><path class="cls-16" d="M418,376.26l60,50-60,50-60-50Z"/><text class="cls-20" transform="translate(388.98 424.26)">dispatched<tspan x="8.01" y="14.4">action ?</tspan></text><path class="cls-14" d="M418,276.26v93.63"/><path class="cls-15" d="M418,375.14l-3.5-7,3.5,1.75,3.5-1.75Z"/><rect class="cls-22" x="343" y="216.26" width="150" height="60" rx="9"/><text class="cls-20" transform="translate(372.8 249.76)">start update loop</text><path class="cls-14" d="M594,296.26V252.63"/><path class="cls-15" d="M594,247.38l3.5,7-3.5-1.75-3.5,1.75Z"/><rect class="cls-22" x="524" y="296.26" width="140" height="40" rx="6"/><text class="cls-20" transform="translate(538.8 319.76)">delete BThreads &amp;...</text></svg>