<?xml version="1.0" encoding="utf-8"?>
<!-- Generator: Adobe Illustrator 25.2.0, SVG Export Plug-In . SVG Version: 6.00 Build 0)  -->
<svg version="1.1" id="Ebene_1" xmlns="http://www.w3.org/2000/svg" xmlns:xlink="http://www.w3.org/1999/xlink" x="0px" y="0px"
	 width="812px" height="873.2px" viewBox="0 0 812 873.2" style="enable-background:new 0 0 812 873.2;" xml:space="preserve">
<style type="text/css">
	.st0{opacity:0.26;fill:#A6FFE8;stroke:#067700;stroke-miterlimit:10;enable-background:new    ;}
	.st1{opacity:0.13;fill:#028925;enable-background:new    ;}
	.st2{opacity:0.36;fill:#FFDEFE;stroke:#9F00A3;stroke-miterlimit:10;enable-background:new    ;}
	.st3{fill:#9B0B9B;}
	.st4{font-family:'MyriadPro-Regular';}
	.st5{font-size:33px;}
	.st6{fill:#028925;}
	.st7{font-size:24px;}
	.st8{fill:none;stroke:#000000;stroke-miterlimit:10;}
	.st9{stroke:#000000;stroke-miterlimit:10;}
	.st10{fill:#FFFFFF;stroke:#000000;stroke-miterlimit:10;}
	.st11{font-family:'HelveticaNeue-Light';}
	.st12{font-size:12px;}
	.st13{fill:none;}
	.st14{font-family:'ArialMT';}
	.st15{letter-spacing:-1;}
	.st16{fill:#FFFFFF;stroke:#000000;}
	.st17{enable-background:new    ;}
</style>
<rect x="294.2" y="23" class="st0" width="489.8" height="821.4"/>
<rect x="315" y="181.4" class="st1" width="451" height="638.6"/>
<rect x="23.2" y="23" class="st2" width="250.8" height="821.4"/>
<text transform="matrix(1 0 0 1 40.38 62)" class="st3 st4 st5">UI</text>
<text transform="matrix(1 0 0 1 305.5 62)" class="st6 st4 st5">S</text>
<text transform="matrix(1 0 0 1 321.97 62)" class="st6 st4 st5">c</text>
<text transform="matrix(1 0 0 1 336.55 62)" class="st6 st4 st5">ena</text>
<text transform="matrix(1 0 0 1 387.31 62)" class="st6 st4 st5">r</text>
<text transform="matrix(1 0 0 1 398.23 62)" class="st6 st4 st5">ios</text>
<text transform="matrix(1 0 0 1 624 213.63)" class="st6 st4 st7">upd</text>
<text transform="matrix(1 0 0 1 664.42 213.63)" class="st6 st4 st7">a</text>
<text transform="matrix(1 0 0 1 675.89 213.63)" class="st6 st4 st7">t</text>
<text transform="matrix(1 0 0 1 683.69 213.63)" class="st6 st4 st7">e</text>
<text transform="matrix(1 0 0 1 696.38 213.63)" class="st6 st4 st7">-loop</text>
<path class="st8" d="M594,376.3v-33.6"/>
<path class="st9" d="M594,337.4l3.5,7l-3.5-1.8l-3.5,1.8L594,337.4z"/>
<path class="st9" d="M255.8,426.3l7-3.5l-1.8,3.5l1.8,3.5L255.8,426.3z"/>
<path class="st10" d="M594,376.3l60,50l-60,50l-60-50L594,376.3z"/>
<text transform="matrix(1 0 0 1 565.55 424.26)" class="st11 st12">start </text>
<text transform="matrix(1 0 0 1 591.77 424.26)" class="st11 st12">r</text>
<text transform="matrix(1 0 0 1 595.33 424.26)" class="st11 st12">eplay</text>
<text transform="matrix(1 0 0 1 573.44 438.66)" class="st11 st12">action ?</text>
<rect x="594" y="356.3" class="st13" width="40" height="20"/>
<text transform="matrix(1 0 0 1 603.71 369.76)" class="st14 st12 st15">Y</text>
<text transform="matrix(1 0 0 1 610.61 369.76)" class="st14 st12">es</text>
<rect x="594" y="476.3" class="st13" width="30" height="20"/>
<text transform="matrix(1 0 0 1 600.83 489.76)" class="st14 st12">No</text>
<rect x="418" y="476.3" class="st13" width="30" height="20"/>
<text transform="matrix(1 0 0 1 334.88 417.8125)" class="st14 st12">No</text>
<path class="st8" d="M516.7,546.3V570"/>
<path class="st9" d="M516.7,575.2l-3.5-7l3.5,1.8l3.5-1.8L516.7,575.2z"/>
<path class="st8" d="M517.7,616.3V634"/>
<path class="st9" d="M517.7,639.2l-3.5-7l3.5,1.8l3.5-1.8L517.7,639.2z"/>
<path class="st16" d="M378.7,576.3h278c3.3,0,6,2.7,6,6v28c0,3.3-2.7,6-6,6h-278c-3.3,0-6-2.7-6-6v-28
	C372.7,579,375.4,576.3,378.7,576.3z"/>
<text transform="matrix(1 0 0 1 491.5637 599.8483)" class="st14 st12">log action</text>
<path class="st16" d="M384.7,640.3h266c6.6,0,12,5.4,12,12v56c0,6.6-5.4,12-12,12h-266c-6.6,0-12-5.4-12-12v-56
	C372.7,645.7,378.1,640.3,384.7,640.3z"/>
<text transform="matrix(1 0 0 1 419.5137 683.8483)" class="st14 st12">advance scenarios and log reactions</text>
<path class="st9" d="M494.1,246.3l7-3.5l-1.8,3.5l1.8,3.5L494.1,246.3z"/>
<rect x="478" y="406.3" class="st13" width="40" height="20"/>
<text transform="matrix(1 0 0 1 487.71 419.76)" class="st14 st12 st15">Y</text>
<text transform="matrix(1 0 0 1 494.61 419.76)" class="st14 st12">es</text>
<path class="st8" d="M418,156.3v53.6"/>
<path class="st9" d="M418,215.1l-3.5-7l3.5,1.8l3.5-1.8L418,215.1z"/>
<path class="st16" d="M350.5,106.3h135c4.1,0,7.5,3.4,7.5,7.5v35c0,4.1-3.4,7.5-7.5,7.5h-135c-4.1,0-7.5-3.4-7.5-7.5v-35
	C343,109.6,346.4,106.3,350.5,106.3z"/>
<text transform="matrix(1 0 0 1 396.16 134.76)" class="st14 st12">initialize</text>
<path class="st16" d="M82.2,399h163.5c4.6,0,8.2,3.7,8.2,8.2v38.5c0,4.6-3.7,8.2-8.2,8.2H82.2c-4.6,0-8.2-3.7-8.2-8.2v-38.5
	C74,402.7,77.7,399,82.2,399z"/>
<text transform="matrix(1 0 0 1 114.31 424.0403)" class="st14 st12">call update-cb with</text>
<text transform="matrix(1 0 0 1 131.98 438.4403)" class="st14 st12">new context</text>
<path class="st8" d="M254,243.8v2.5h82.6"/>
<path class="st9" d="M341.9,246.3l-7,3.5l1.8-3.5l-1.8-3.5L341.9,246.3z"/>
<path class="st16" d="M82.2,216.3h163.5c4.6,0,8.2,3.7,8.2,8.2V263c0,4.6-3.7,8.2-8.2,8.2H82.2c-4.6,0-8.2-3.7-8.2-8.2v-38.5
	C74,220,77.7,216.3,82.2,216.3z"/>
<text transform="matrix(1 0 0 1 123.47 246.76)" class="st14 st12">dispatch action</text>
<path class="st8" d="M355.2,426.8h-95.9"/>
<path class="st8" d="M478,426.3h49.6"/>
<path class="st9" d="M532.9,426.3l-7,3.5l1.8-3.5l-1.8-3.5L532.9,426.3z"/>
<path class="st10" d="M418,376.3l60,50l-60,50l-60-50L418,376.3z"/>
<text transform="matrix(1 0 0 1 388.98 424.26)" class="st14 st12">next action</text>
<text transform="matrix(1 0 0 1 396.99 438.66)" class="st14 st12"> exists?</text>
<path class="st8" d="M418,334.6v35.3"/>
<path class="st9" d="M418,375.1l-3.5-7l3.5,1.8l3.5-1.8L418,375.1z"/>
<path class="st16" d="M352,216.3h132c5,0,9,4,9,9v42c0,5-4,9-9,9H352c-5,0-9-4-9-9v-42C343,220.3,347,216.3,352,216.3z"/>
<text transform="matrix(1 0 0 1 369.8 242.76)" class="st17"><tspan x="0" y="0" class="st14 st12">run scaffolding &amp;</tspan><tspan x="0" y="14.4" class="st14 st12">get all placed bids</tspan></text>
<path class="st8" d="M594,296.3v-43.6"/>
<path class="st9" d="M594,247.4l3.5,7l-3.5-1.8l-3.5,1.8L594,247.4z"/>
<path class="st16" d="M530,296.3h128c3.3,0,6,2.7,6,6v28c0,3.3-2.7,6-6,6H530c-3.3,0-6-2.7-6-6v-28C524,298.9,526.7,296.3,530,296.3
	z"/>
<text transform="matrix(1 0 0 1 538.8 319.76)" class="st14 st12">delete BThreads &amp;...</text>
<path class="st16" d="M354,294.6h128c3.3,0,6,2.7,6,6v28c0,3.3-2.7,6-6,6H354c-3.3,0-6-2.7-6-6v-28C348,297.2,350.7,294.6,354,294.6
	z"/>
<text transform="matrix(1 0 0 1 368.0002 312.0236)" class="st17"><tspan x="0" y="0" class="st14 st12">get next action from </tspan><tspan x="0" y="14.4" class="st14 st12">bid or dispatch</tspan></text>
<path class="st8" d="M417.5,276.3v11"/>
<path class="st9" d="M417.5,292.5l-3.5-7l3.5,1.8l3.5-1.8L417.5,292.5z"/>
<path class="st8" d="M594,475.5v33.6h-77.3v37.2"/>
<polyline class="st8" points="518,720.3 518,780.7 707.6,780.7 707.6,245.3 499.4,245.3 "/>
</svg>
