<svg id="Ebene_1" data-name="Ebene 1" xmlns="http://www.w3.org/2000/svg" viewBox="0 0 812 1066"><defs><style>.cls-1{fill:#a6ffe8;stroke:#067700;opacity:0.26;}.cls-1,.cls-10,.cls-3,.cls-4,.cls-5{stroke-miterlimit:10;}.cls-14,.cls-2,.cls-21{fill:#028925;}.cls-2{opacity:0.13;}.cls-3{fill:#ffdefe;stroke:#9f00a3;opacity:0.36;}.cls-11,.cls-4{fill:none;}.cls-10,.cls-4,.cls-5,.cls-6{stroke:#000;}.cls-10,.cls-6{fill:#fff;}.cls-7,.cls-9{isolation:isolate;font-size:12px;}.cls-7{font-family:HelveticaNeue-Light, Helvetica Neue;font-weight:300;}.cls-8{letter-spacing:-0.02em;}.cls-9{font-family:ArialMT, Arial;}.cls-12{letter-spacing:-0.09em;}.cls-13,.cls-14{font-size:33px;}.cls-13{fill:#9b0b9b;}.cls-13,.cls-14,.cls-21{font-family:MyriadPro-Regular, Myriad Pro;}.cls-15{letter-spacing:0.01em;}.cls-16{letter-spacing:-0.01em;}.cls-17{letter-spacing:0em;}.cls-18{letter-spacing:-0.03em;}.cls-19{letter-spacing:0em;}.cls-20{letter-spacing:0.01em;}.cls-21{font-size:24px;}.cls-22{letter-spacing:0em;}.cls-23{letter-spacing:-0.01em;}.cls-24{letter-spacing:0em;}.cls-25{letter-spacing:-0.01em;}</style></defs><rect class="cls-1" x="294.23" y="23" width="489.77" height="1023"/><rect class="cls-2" x="305.5" y="181.44" width="460.5" height="855.56"/><rect class="cls-3" x="27" y="23" width="250.82" height="1023"/><path class="cls-4" d="M396,308.25v39.88"/><path class="cls-5" d="M396,353.38l-3.5-7,3.5,1.75,3.5-1.75Z"/><rect class="cls-6" x="321" y="225.75" width="150" height="82.5" rx="12.38"/><text class="cls-7" transform="translate(330.65 267)">setup &amp; delete BTh<tspan class="cls-8" x="98.69" y="0">r</tspan><tspan x="102.25" y="0">eads </tspan><tspan x="22" y="14.4">and event-cache</tspan></text><rect class="cls-6" x="321" y="354.5" width="150" height="40" rx="6"/><text class="cls-9" transform="translate(374.49 378)">get bids</text><path class="cls-4" d="M456,494.5h43.63"/><path class="cls-5" d="M504.88,494.5l-7,3.5,1.75-3.5-1.75-3.5Z"/><path class="cls-4" d="M396,544.5v35h85v28.63"/><path class="cls-5" d="M481,613.38l-3.5-7,3.5,1.75,3.5-1.75Z"/><path class="cls-10" d="M396,444.5l60,50-60,50-60-50Z"/><text class="cls-9" transform="translate(366.98 492)">dispatched<tspan x="8.01" y="14.4">action ?</tspan></text><path class="cls-4" d="M396,394.5v43.63"/><path class="cls-5" d="M396,443.38l-3.5-7,3.5,1.75,3.5-1.75Z"/><path class="cls-4" d="M566,544.5v35H481v28.63"/><path class="cls-5" d="M481,613.38l-3.5-7,3.5,1.75,3.5-1.75Z"/><path class="cls-4" d="M566,444.5V270.87"/><path class="cls-5" d="M566,265.62l3.5,7-3.5-1.75-3.5,1.75Z"/><path class="cls-10" d="M566,444.5l60,50-60,50-60-50Z"/><text class="cls-9" transform="translate(536.32 492.5)">start replay<tspan x="8.66" y="14.4">action ?</tspan></text><rect class="cls-11" x="566" y="414.5" width="40" height="20"/><text class="cls-9" transform="translate(575.71 428)"><tspan class="cls-12">Y</tspan><tspan x="6.9" y="0">es</tspan></text><path class="cls-4" d="M481,654.5h-5v23.63"/><path class="cls-5" d="M476,683.38l-3.5-7,3.5,1.75,3.5-1.75Z"/><rect class="cls-6" x="336" y="614.5" width="290" height="40" rx="6"/><text class="cls-9" transform="translate(365.11 638)">get next action from dispatch or request-bid</text><rect class="cls-11" x="571" y="544.5" width="30" height="20"/><text class="cls-9" transform="translate(577.83 558)">No</text><rect class="cls-11" x="406" y="544.5" width="30" height="20"/><text class="cls-9" transform="translate(412.83 558)">No</text><path class="cls-4" d="M476,784.5v23.63"/><path class="cls-5" d="M476,813.38l-3.5-7,3.5,1.75,3.5-1.75Z"/><path class="cls-4" d="M416,734.5H349"/><path class="cls-5" d="M343.75,734.5l7-3.5L349,734.5l1.75,3.5Z"/><path class="cls-10" d="M476,684.5l60,50-60,50-60-50Z"/><text class="cls-9" transform="translate(452.13 732.5)">has next<tspan x="1.67" y="14.4">action ?</tspan></text><path class="cls-4" d="M476,854.5v33.63"/><path class="cls-5" d="M476,893.38l-3.5-7,3.5,1.75,3.5-1.75Z"/><rect class="cls-6" x="401" y="814.5" width="150" height="40" rx="6"/><text class="cls-9" transform="translate(449.82 838)">log action</text><path class="cls-4" d="M476,944.5v23.63"/><path class="cls-5" d="M476,973.38l-3.5-7,3.5,1.75,3.5-1.75Z"/><rect class="cls-6" x="401" y="894.5" width="150" height="50" rx="7.5"/><text class="cls-9" transform="translate(413.96 916.5)">advance BThreads and<tspan x="28.02" y="14.4">log reactions</tspan></text><path class="cls-4" d="M551,999.5H736V267H477.37"/><path class="cls-5" d="M472.12,267l7-3.5-1.75,3.5,1.75,3.5Z"/><rect class="cls-6" x="401" y="974.5" width="150" height="50" rx="7.5"/><text class="cls-9" transform="translate(422.79 1003)">update event-cache</text><rect class="cls-11" x="456" y="474.5" width="40" height="20"/><text class="cls-9" transform="translate(465.71 488)"><tspan class="cls-12">Y</tspan><tspan x="6.9" y="0">es</tspan></text><rect class="cls-11" x="366" y="707" width="30" height="20"/><text class="cls-9" transform="translate(372.83 720)">No</text><rect class="cls-11" x="476" y="784.5" width="40" height="20"/><text class="cls-9" transform="translate(485.71 798)"><tspan class="cls-12">Y</tspan><tspan x="6.9" y="0">es</tspan></text><path class="cls-4" d="M396,143.5v75.88"/><path class="cls-5" d="M396,224.63l-3.5-7,3.5,1.75,3.5-1.75Z"/><rect class="cls-6" x="321" y="93.5" width="150" height="50" rx="7.5"/><text class="cls-9" transform="translate(374.16 123)">initialize</text><rect class="cls-6" x="163.75" y="707" width="180" height="55" rx="8.25"/><text class="cls-9" transform="translate(204.06 732.5)">call update-cb with<tspan x="0.67" y="14.4">context &amp; dispatch</tspan></text><path class="cls-4" d="M242,267h72.63"/><path class="cls-5" d="M319.88,267l-7,3.5,1.75-3.5-1.75-3.5Z"/><rect class="cls-6" x="62" y="239.5" width="180" height="55" rx="8.25"/><text class="cls-9" transform="translate(111.47 271)">dispatch action</text><text class="cls-13" transform="translate(40.38 62)">UI</text><text class="cls-14" transform="translate(305.5 62)"><tspan class="cls-15">S</tspan><tspan class="cls-16" x="16.47" y="0">c</tspan><tspan x="31.05" y="0">ena</tspan><tspan class="cls-17" x="81.81" y="0">r</tspan><tspan x="92.73" y="0">ios </tspan><tspan class="cls-18" x="138.63" y="0">F</tspan><tspan class="cls-19" x="153.55" y="0">un</tspan><tspan class="cls-20" x="190.04" y="0">c</tspan><tspan x="205.26" y="0">tion</tspan></text><text class="cls-21" transform="translate(626 213.63)">upd<tspan class="cls-22" x="40.42" y="0">a</tspan><tspan class="cls-23" x="51.89" y="0">t</tspan><tspan class="cls-24" x="59.69" y="0">e</tspan><tspan class="cls-25" x="71.71" y="0">L</tspan><tspan x="82.7" y="0">oop</tspan></text></svg>